<?xml version="1.0" encoding="UTF-8"?>
<!DOCTYPE svg PUBLIC "-//W3C//DTD SVG 1.1//EN" "http://www.w3.org/Graphics/SVG/1.1/DTD/svg11.dtd">
<svg xmlns="http://www.w3.org/2000/svg" version="1.1" width="512px" height="512px" style="shape-rendering:geometricPrecision; text-rendering:geometricPrecision; image-rendering:optimizeQuality; fill-rule:evenodd; clip-rule:evenodd" xmlns:xlink="http://www.w3.org/1999/xlink">
<g><path style="opacity:0.954" fill="#000000" d="M 187.5,-0.5 C 192.167,-0.5 196.833,-0.5 201.5,-0.5C 204.234,0.704964 206.901,2.20496 209.5,4C 224.388,18.0581 239.722,31.5581 255.5,44.5C 268.982,32.8524 282.315,21.019 295.5,9C 299.747,5.05599 304.414,1.88932 309.5,-0.5C 314.167,-0.5 318.833,-0.5 323.5,-0.5C 327.4,1.1227 331.067,3.28937 334.5,6C 349,19.1667 363.5,32.3333 378,45.5C 390.58,33.5828 403.746,22.4161 417.5,12C 434.259,7.46037 445.425,13.2937 451,29.5C 451.667,180.167 451.667,330.833 451,481.5C 445.425,497.706 434.259,503.54 417.5,499C 403.746,488.584 390.58,477.417 378,465.5C 363.5,478.667 349,491.833 334.5,505C 331.067,507.711 327.4,509.877 323.5,511.5C 318.833,511.5 314.167,511.5 309.5,511.5C 306.766,510.295 304.099,508.795 301.5,507C 286.612,492.942 271.278,479.442 255.5,466.5C 242.018,478.148 228.685,489.981 215.5,502C 211.253,505.944 206.586,509.111 201.5,511.5C 196.833,511.5 192.167,511.5 187.5,511.5C 183.6,509.877 179.933,507.711 176.5,505C 162,491.833 147.5,478.667 133,465.5C 120.42,477.417 107.254,488.584 93.5,499C 76.7412,503.54 65.5745,497.706 60,481.5C 59.3333,330.833 59.3333,180.167 60,29.5C 65.5745,13.2937 76.7412,7.46037 93.5,12C 107.254,22.4161 120.42,33.5828 133,45.5C 147.5,32.3333 162,19.1667 176.5,6C 179.933,3.28937 183.6,1.1227 187.5,-0.5 Z M 193.5,24.5 C 209.259,37.4194 224.592,50.9194 239.5,65C 250.167,72.3333 260.833,72.3333 271.5,65C 286.369,51.1289 301.536,37.6289 317,24.5C 332.551,39.0183 348.384,53.185 364.5,67C 374.029,71.9212 383.363,71.5879 392.5,66C 403.667,56.1667 414.833,46.3333 426,36.5C 426.667,182.5 426.667,328.5 426,474.5C 414.833,464.667 403.667,454.833 392.5,445C 383.35,439.41 374.017,439.077 364.5,444C 348.384,457.815 332.551,471.982 317,486.5C 301.536,473.371 286.369,459.871 271.5,446C 260.833,438.667 250.167,438.667 239.5,446C 224.631,459.871 209.464,473.371 194,486.5C 178.449,471.982 162.616,457.815 146.5,444C 136.983,439.077 127.65,439.41 118.5,445C 107.333,454.833 96.1667,464.667 85,474.5C 84.3333,328.5 84.3333,182.5 85,36.5C 96.1667,46.3333 107.333,56.1667 118.5,66C 130.236,72.6907 141.236,71.6907 151.5,63C 165.696,50.3007 179.696,37.4674 193.5,24.5 Z"/></g>
<g><path style="opacity:0.953" fill="#000000" d="M 137.5,171.5 C 180.501,171.333 223.501,171.5 266.5,172C 273.868,177.068 275.368,183.568 271,191.5C 268.479,194.352 265.313,195.852 261.5,196C 221.5,196.667 181.5,196.667 141.5,196C 131.171,193.851 127.671,187.684 131,177.5C 132.494,174.686 134.66,172.686 137.5,171.5 Z"/></g>
<g><path style="opacity:0.992" fill="#000000" d="M 136.5,243.5 C 215.834,243.333 295.167,243.5 374.5,244C 381.714,249.096 383.214,255.596 379,263.5C 377.59,264.787 376.09,265.954 374.5,267C 295.167,267.667 215.833,267.667 136.5,267C 129.286,261.904 127.786,255.404 132,247.5C 133.667,246.267 135.167,244.933 136.5,243.5 Z"/></g>
<g><path style="opacity:0.955" fill="#000000" d="M 141.5,314.5 C 217.501,314.333 293.501,314.5 369.5,315C 377.042,315.709 381.042,319.876 381.5,327.5C 380.954,332.869 378.287,336.702 373.5,339C 294.833,339.667 216.167,339.667 137.5,339C 129.416,334.402 127.583,327.902 132,319.5C 134.659,316.63 137.826,314.963 141.5,314.5 Z"/></g>
</svg>
